<svg width="202" height="265" viewBox="0 0 202 265" fill="none" xmlns="http://www.w3.org/2000/svg">
<path d="M-27.4812 318.868C-5.7383 303.883 15.4146 281.747 18.2179 254.189C18.928 247.21 17.6954 239.929 14.9372 233.237M14.9372 233.237C10.7362 223.044 2.99584 214.216 -6.81093 209.892C-22.1537 203.126 -40.5294 202.729 -51.9686 216.339C-57.9311 223.433 -60.0205 232.242 -53.8212 239.962C-44.3501 251.756 -22.9464 250.813 -10.2627 246.239C-1.49318 243.076 6.98707 238.657 14.9372 233.237ZM129.889 81.391C124.475 107.237 112.239 135.303 87.9077 148.543C81.745 151.896 74.5543 153.574 67.3161 153.618M67.3161 153.618C56.2919 153.684 45.1576 149.959 37.378 142.587C25.2067 131.053 17.7359 114.259 25.8646 98.448C30.1015 90.2066 37.4181 84.8737 46.9345 87.6062C61.4732 91.781 68.8786 111.885 69.5638 125.351C70.0376 134.661 69.2405 144.191 67.3161 153.618ZM67.3161 153.618C60.5543 186.743 43.2253 216.897 14.8486 233.558" stroke="#0B5E65" stroke-opacity="0.5" stroke-width="9" stroke-linecap="round"/>
<path d="M143.351 108.093C141.388 100.872 136.327 84.4399 131.789 76.476" stroke="#0B5E65" stroke-opacity="0.5" stroke-width="9" stroke-linecap="round"/>
<path d="M131.788 76.4756C125.461 80.4705 110.625 89.1612 101.898 91.9642" stroke="#0B5E65" stroke-opacity="0.5" stroke-width="9" stroke-linecap="round"/>
</svg>
