<svg width="187" height="209" viewBox="0 0 187 209" fill="none" xmlns="http://www.w3.org/2000/svg">
<path d="M148.859 79.6519C138.535 71.3445 132.287 -0.975118 122.092 4.99801C111.898 10.9711 85.413 62.9328 77.8726 60.9457C70.3322 58.9587 3.20785 20.3197 5.31858 28.1388C7.42932 35.9579 52.8107 94.8458 49.8663 104.964C46.9218 115.083 8.42277 163.04 15.9634 165.027C23.5041 167.014 86.0782 133.222 96.0815 136.417C106.085 139.612 154.793 208.036 161.316 203.33C167.84 198.625 148.828 138.864 153.876 132.372C158.923 125.881 240.12 90.013 230.499 87.4777C220.878 84.9424 159.183 87.9592 148.859 79.6519Z" stroke="#0B4449" stroke-width="9" stroke-linecap="round"/>
</svg>
